<svg width="51" height="50" viewBox="0 0 51 50" fill="none" xmlns="http://www.w3.org/2000/svg">
<path d="M5.00371 0.000415739C2.24162 0.000236934 0.00252379 2.22395 0.00302899 4.98604C0.0046623 13.9158 0.00724271 32.8391 0.00261903 45.004C0.00156893 47.7668 2.22505 49.9999 4.98785 49.9999C13.9196 50 32.8451 50.0001 45.0094 49.9999C47.7708 49.9998 50.0016 47.777 50.0016 45.0156C50.0016 36.0858 50.0016 17.1581 50.0016 4.99261C50.0016 2.23124 47.7631 0.000338966 45.0017 0.000332397C31.669 0.000300676 18.3364 0.00127884 5.00371 0.000415739Z" fill="#675DA9"/>
<path d="M38.9581 9.70735C38.0153 8.84064 34.1988 6.06565 25.6913 6.02763C25.6913 6.02763 15.6634 5.41942 10.7748 9.90502C8.05304 12.6268 7.0951 16.603 6.99626 21.5448C6.89743 26.4789 6.76818 35.7314 15.6862 38.2403H15.6938L15.6862 42.0645C15.6862 42.0645 15.6329 43.6155 16.6517 43.9272C17.8834 44.3073 18.6132 43.1289 19.7916 41.8592C20.4379 41.1598 21.3274 40.141 22.004 39.3579C28.1014 39.8673 32.7923 38.6965 33.3245 38.5216C34.5561 38.1187 41.5278 37.2292 42.6606 27.9767C43.8314 18.4581 42.0904 12.4291 38.9581 9.70735ZM39.992 27.3076C39.0341 35.032 33.3853 35.5186 32.3437 35.8531C31.9028 35.9975 27.7821 37.0239 22.597 36.6818C22.597 36.6818 18.7349 41.3423 17.5336 42.5511C17.3436 42.7412 17.1231 42.8172 16.9786 42.7792C16.7734 42.7259 16.7125 42.4827 16.7201 42.1253C16.7201 41.6083 16.7505 35.7619 16.7505 35.7619C16.7429 35.7619 16.7429 35.7619 16.7505 35.7619C9.20105 33.6711 9.64201 25.7947 9.72564 21.674C9.80927 17.5534 10.5847 14.1701 12.8884 11.8969C17.0166 8.1564 25.5393 8.71139 25.5393 8.71139C32.7315 8.7418 36.1755 10.9086 36.9738 11.6308C39.6271 13.9117 40.9804 19.3476 39.992 27.3076Z" fill="white"/>
<path d="M29.1964 21.8185C28.9455 21.8185 28.7326 21.6208 28.7174 21.3623C28.6338 19.7278 27.8659 18.9295 26.2997 18.8458C26.0336 18.8306 25.8284 18.6026 25.8436 18.3365C25.8588 18.0704 26.0869 17.8651 26.3529 17.8803C28.4209 17.9943 29.5765 19.1804 29.6829 21.3091C29.6981 21.5752 29.4929 21.8033 29.2268 21.8109C29.2116 21.8185 29.204 21.8185 29.1964 21.8185Z" fill="white"/>
<path d="M31.6591 22.6398H31.6515C31.3854 22.6322 31.1725 22.4117 31.1801 22.1456C31.2181 20.5034 30.7467 19.173 29.7432 18.0782C28.7472 16.9834 27.3711 16.3904 25.5541 16.2611C25.288 16.2383 25.0903 16.0102 25.1131 15.7441C25.1359 15.478 25.364 15.2804 25.6301 15.3032C27.6828 15.4552 29.3022 16.1699 30.4578 17.4319C31.621 18.7016 32.1836 20.2906 32.1456 22.1684C32.138 22.4345 31.9176 22.6398 31.6591 22.6398Z" fill="white"/>
<path d="M34.1833 23.6281C33.9172 23.6281 33.7043 23.4152 33.7043 23.1491C33.6815 20.2069 32.8376 17.9641 31.1194 16.2839C29.424 14.6265 27.2724 13.7826 24.7407 13.7598C24.4746 13.7598 24.2617 13.5393 24.2617 13.2732C24.2617 13.0071 24.4822 12.7942 24.7407 12.7942C27.5309 12.817 29.9029 13.7522 31.7808 15.592C33.6663 17.4319 34.6318 19.9712 34.6622 23.1339C34.6698 23.4076 34.457 23.6281 34.1833 23.6281C34.1909 23.6281 34.1909 23.6281 34.1833 23.6281Z" fill="white"/>
<path d="M26.4131 27.7711C26.4131 27.7711 27.0897 27.832 27.4546 27.3834L28.1617 26.4939C28.5038 26.0529 29.3325 25.7716 30.1384 26.2202C30.587 26.4711 31.4004 26.9729 31.9022 27.3454C32.442 27.7407 33.5368 28.6531 33.5444 28.6607C34.069 29.1016 34.1906 29.7478 33.8333 30.4397C33.8333 30.4397 33.8333 30.4473 33.8333 30.4549C33.4684 31.1011 32.9742 31.7093 32.3584 32.2719C32.3508 32.2719 32.3508 32.2795 32.3432 32.2795C31.8338 32.7053 31.332 32.9486 30.8454 33.0018C30.7846 33.017 30.7162 33.017 30.625 33.017C30.4121 33.017 30.1992 32.9866 29.9863 32.9182L29.9711 32.8954C29.2109 32.6825 27.9488 32.1503 25.8505 30.9871C24.482 30.2344 23.3492 29.4665 22.3836 28.6987C21.8742 28.2957 21.3573 27.8472 20.8251 27.315C20.8099 27.2998 20.7871 27.277 20.7719 27.2618C20.7566 27.2466 20.7338 27.2237 20.7186 27.2085C20.7034 27.1933 20.6806 27.1705 20.6654 27.1553C20.6502 27.1401 20.6274 27.1173 20.6122 27.1021C20.0876 26.5699 19.6314 26.0529 19.2285 25.5435C18.4606 24.5856 17.6928 23.4452 16.9401 22.0767C15.7769 19.9708 15.2447 18.7087 15.0318 17.956L15.009 17.9408C14.9406 17.7279 14.9102 17.5151 14.9102 17.3022C14.9102 17.211 14.9102 17.1425 14.9254 17.0817C14.9862 16.5875 15.2295 16.0934 15.6476 15.584C15.6476 15.5764 15.6552 15.5764 15.6552 15.5688C16.2178 14.9454 16.826 14.4588 17.4723 14.0939C17.4723 14.0939 17.4799 14.0939 17.4875 14.0939C18.1717 13.7365 18.818 13.8582 19.2665 14.3828C19.2665 14.3828 20.1864 15.4851 20.5818 16.0249C20.9543 16.5343 21.4561 17.3402 21.707 17.7888C22.1555 18.5947 21.8742 19.4234 21.4333 19.7655L20.5438 20.4725C20.0952 20.8375 20.156 21.5141 20.156 21.5141C20.156 21.5141 21.4713 26.5167 26.4131 27.7711Z" fill="white"/>
</svg>
